# xmcd
#
# Track frame offsets: 
#        150
#        17150
#        28351
#        43138
#        57238
#        74201
#        84851
#        97788
#        113003
#        126515
#        142940
#        155365
#
# Disc length: 2279 seconds
#
# Revision: 3
# Processed by: cddbd v1.5.2PL0 Copyright (c) Steve Scherf et al.
# Submitted via: ExactAudioCopyFreeDBPlugin 1.0
#
DISCID=a208e50c
DTITLE=Olivia Newton John - 1971 - If Not For You
DYEAR=1971
DGENRE=Country
TTITLE0=Me And Bobby McGee
TTITLE1=If
TTITLE2=Banks Of Ohio
TTITLE3=In A Station
TTITLE4=Love Song
TTITLE5=Help Me Make It Through The Night
TTITLE6=If Not For You
TTITLE7=Where Are You Going To My Love
TTITLE8=Lullaby
TTITLE9=If You Could Read My Mind
TTITLE10=If I Gotta Leave
TTITLE11=No Regrets
EXTD=
EXTT0=
EXTT1=
EXTT2=
EXTT3=
EXTT4=
EXTT5=
EXTT6=
EXTT7=
EXTT8=
EXTT9=
EXTT10=
EXTT11=
PLAYORDER=
